<?xml version="1.0" encoding="iso-8859-1"?>
<!-- Generator: Adobe Illustrator 19.0.0, SVG Export Plug-In . SVG Version: 6.00 Build 0)  -->
<svg version="1.1" id="Capa_1" xmlns="http://www.w3.org/2000/svg" xmlns:xlink="http://www.w3.org/1999/xlink" x="0px" y="0px"
	 viewBox="0 0 512 512" style="enable-background:new 0 0 512 512;" xml:space="preserve">
<circle style="fill:#7A3EB5;" cx="256" cy="256" r="256"/>
<path style="fill:#4B1B7A;" d="M512,256c0-8.008-0.387-15.925-1.106-23.745L402.479,123.84L256,450.5l55.458,55.458
	C426.177,480.618,512,378.339,512,256z"/>
<path style="fill:#FFE67D;" d="M109.521,123.841c80.898-80.898,212.06-80.898,292.959,0L256,450.5L109.521,123.841z"/>
<path style="fill:#F5DA73;" d="M402.479,123.841c-40.558-40.558-93.75-60.778-146.908-60.669L256,450.5l0,0L402.479,123.841z"/>
<path style="fill:#FFDA45;" d="M378.377,177.59l24.102-53.75c-80.898-80.898-212.06-80.898-292.959,0l24.102,53.75
	C206.247,124.288,305.753,124.288,378.377,177.59z"/>
<path style="fill:#FFBC36;" d="M255.571,63.172v74.446c43.175-0.089,86.373,13.233,122.806,39.972l24.102-53.75
	C361.921,83.282,308.729,63.063,255.571,63.172z"/>
<circle style="fill:#F92814;" cx="207.5" cy="200.09" r="42.5"/>
<path style="fill:#C10000;" d="M330.833,213.5c-23.472,0-42.5,19.028-42.5,42.5c0,21.277,15.636,38.902,36.045,42.012l33.529-74.773
	C350.555,217.156,341.121,213.5,330.833,213.5z"/>
<path style="fill:#F92814;" d="M219.5,303.423c-9.616,0-18.482,3.197-25.604,8.581l33.902,75.603
	c19.499-3.86,34.202-21.052,34.202-41.684C262,322.451,242.972,303.423,219.5,303.423z"/>
<path style="fill:#AF3237;" d="M255.571,323.456v44.938c4.071-6.519,6.429-14.218,6.429-22.471
	C262,337.672,259.641,329.975,255.571,323.456z"/>
<rect x="294.983" y="167.591" transform="matrix(-0.9658 0.2591 -0.2591 -0.9658 645.5651 270.0918)" style="fill:#64A54B;" width="19.999" height="19.999"/>
<rect x="208.611" y="259.035" transform="matrix(-0.9415 -0.3371 0.3371 -0.9415 336.541 599.994)" style="fill:#78BE5A;" width="23.493" height="23.493"/>
<rect x="278.358" y="306.207" transform="matrix(-0.9415 -0.3371 0.3371 -0.9415 453.2492 711.1113)" style="fill:#64A54B;" width="20.001" height="20.001"/>
<g>
</g>
<g>
</g>
<g>
</g>
<g>
</g>
<g>
</g>
<g>
</g>
<g>
</g>
<g>
</g>
<g>
</g>
<g>
</g>
<g>
</g>
<g>
</g>
<g>
</g>
<g>
</g>
<g>
</g>
</svg>
